<svg width="40" height="48" viewBox="0 0 40 48" fill="none" xmlns="http://www.w3.org/2000/svg">
<path d="M6.5625 47.0811C5.375 48.0686 3.7125 48.2936 2.3 47.6311C0.8875 46.9686 0 45.5561 0 44.0061V4.00609C0 2.45609 0.9 1.04359 2.3 0.381093C3.7 -0.281407 5.3625 -0.068907 6.5625 0.931093L30.5625 20.9311L32 22.1311V4.00609C32 1.79359 33.7875 0.00609279 36 0.00609279C38.2125 0.00609279 40 1.79359 40 4.00609V44.0061C40 46.2186 38.2125 48.0061 36 48.0061C33.7875 48.0061 32 46.2186 32 44.0061V25.8811L30.5625 27.0811L6.5625 47.0811Z" fill="#F5F5F5"/>
</svg>
