<svg width="64" height="64" viewBox="0 0 64 64" fill="none" xmlns="http://www.w3.org/2000/svg">
<path d="M45.4306 0H18.6013C6.94746 0 0 6.944 0 18.592V45.376C0 57.056 6.94746 64 18.6013 64H45.3986C57.0524 64 63.9999 57.056 63.9999 45.408V18.592C64.0319 6.944 57.0844 0 45.4306 0ZM47.6397 30.496C47.6397 31.744 46.6472 32.736 45.3986 32.736C44.15 32.736 43.1575 31.744 43.1575 30.496V29.92L34.4492 38.624C33.9689 39.104 33.3286 39.328 32.6563 39.264C31.9839 39.2 31.3756 38.848 31.0235 38.272L27.7578 33.408L20.138 41.024C19.6898 41.472 19.1455 41.664 18.5693 41.664C17.993 41.664 17.4167 41.44 17.0005 41.024C16.136 40.16 16.136 38.752 17.0005 37.856L26.5412 28.32C27.0215 27.84 27.6618 27.616 28.3341 27.68C29.0065 27.744 29.6148 28.096 29.9669 28.672L33.2326 33.536L39.9879 26.784H39.4116C38.163 26.784 37.1705 25.792 37.1705 24.544C37.1705 23.296 38.163 22.304 39.4116 22.304H45.3666C45.6548 22.304 45.9429 22.368 46.231 22.464C46.7753 22.688 47.2235 23.136 47.4476 23.68C47.5757 23.968 47.6077 24.256 47.6077 24.544V30.496H47.6397Z" fill="#D9D9D9"/>
</svg>
