<svg width="61" height="61" viewBox="0 0 61 61" fill="none" xmlns="http://www.w3.org/2000/svg">
<path d="M46.9274 60.9411H14.0726C6.2986 60.9411 0 54.6142 0 46.8402V25.8165C0 21.9578 2.38326 17.1062 5.44744 14.7229L20.74 2.80663C25.3363 -0.768241 32.6847 -0.938473 37.4512 2.40942L54.9851 14.6945C58.3614 17.0494 61 22.0997 61 26.2137V46.8686C61 54.6142 54.7014 60.9411 46.9274 60.9411ZM23.3502 6.15454L8.05767 18.0708C6.04326 19.6597 4.25581 23.2629 4.25581 25.8165V46.8402C4.25581 52.2593 8.65349 56.6853 14.0726 56.6853H46.9274C52.3465 56.6853 56.7442 52.2877 56.7442 46.8686V26.2137C56.7442 23.4899 54.7865 19.7164 52.5451 18.1843L35.0112 5.89919C31.7767 3.62942 26.4428 3.74291 23.3502 6.15454Z" fill="#DEDEDE"/>
<path d="M30.5 49.5923C29.3367 49.5923 28.3721 48.6277 28.3721 47.4644V38.9528C28.3721 37.7895 29.3367 36.8249 30.5 36.8249C31.6632 36.8249 32.6279 37.7895 32.6279 38.9528V47.4644C32.6279 48.6277 31.6632 49.5923 30.5 49.5923Z" fill="#DEDEDE"/>
</svg>
