<svg width="61" height="61" viewBox="0 0 61 61" fill="none" xmlns="http://www.w3.org/2000/svg">
<path d="M54.9975 14.6795L37.447 2.40021C32.6633 -0.951441 25.3201 -0.768624 20.7193 2.79632L5.45405 14.7099C2.4071 17.0865 0 21.9617 0 25.8007V46.8247C0 54.5944 6.3072 60.9321 14.0769 60.9321H46.9231C54.6928 60.9321 61 54.6249 61 46.8552V26.1968C61 22.0836 58.3491 17.0256 54.9975 14.6795ZM32.7852 48.7443C32.7852 49.9935 31.7492 51.0295 30.5 51.0295C29.2507 51.0295 28.2147 49.9935 28.2147 48.7443V39.6034C28.2147 38.3542 29.2507 37.3182 30.5 37.3182C31.7492 37.3182 32.7852 38.3542 32.7852 39.6034V48.7443Z" fill="#DEDEDE"/>
</svg>
