<svg width="50" height="40" viewBox="0 0 50 40" fill="none" xmlns="http://www.w3.org/2000/svg">
<path d="M21.6667 39.0448C22.6042 39.3824 23.6111 38.6805 23.6111 37.6678V4.1399C23.6111 3.76678 23.4722 3.39365 23.1771 3.16267C21.4757 1.77678 17.5694 0 12.5 0C8.11632 0 4.0191 1.18156 1.57118 2.14102C0.590278 2.53191 0 3.52691 0 4.60187V37.499C0 38.5562 1.11111 39.2935 2.09201 38.9648C4.82639 38.032 9.15799 36.9571 12.5 36.9571C15.4427 36.9571 19.3576 38.2008 21.6667 39.0448ZM28.3333 39.0448C30.6424 38.2008 34.5573 36.9571 37.5 36.9571C40.842 36.9571 45.1736 38.032 47.908 38.9648C48.8889 39.3024 50 38.5562 50 37.499V4.60187C50 3.52691 49.4097 2.53191 48.4288 2.14991C45.9809 1.18156 41.8837 0 37.5 0C32.4306 0 28.5243 1.77678 26.8229 3.16267C26.5365 3.39365 26.3889 3.76678 26.3889 4.1399V37.6678C26.3889 38.6805 27.4045 39.3824 28.3333 39.0448Z" fill="#BEE0FF"/>
</svg>
