<svg width="45" height="38" viewBox="0 0 45 38" fill="none" xmlns="http://www.w3.org/2000/svg">
<path d="M39.1351 6.20246C42.7086 9.11423 45 13.5563 45 18.5278C45 23.4993 42.7086 27.9414 39.1351 30.8532C38.2831 31.5481 37.034 31.4157 36.3392 30.5637C35.6443 29.7117 35.7767 28.4626 36.6287 27.7677C39.3171 25.5839 41.0294 22.2585 41.0294 18.5278C41.0294 14.7971 39.3171 11.4718 36.6287 9.27967C35.7767 8.58481 35.6526 7.33573 36.3392 6.48371C37.0257 5.63169 38.2831 5.50761 39.1351 6.19419V6.20246ZM34.1305 12.3652C35.909 13.821 37.0588 16.0379 37.0588 18.5278C37.0588 21.0177 35.909 23.2346 34.1305 24.6905C33.2785 25.3854 32.0294 25.253 31.3346 24.401C30.6397 23.549 30.7721 22.2999 31.6241 21.605C32.5175 20.8771 33.0882 19.7686 33.0882 18.5278C33.0882 17.287 32.5175 16.1786 31.6241 15.4424C30.7721 14.7475 30.648 13.4984 31.3346 12.6464C32.0211 11.7944 33.2785 11.6703 34.1305 12.3569V12.3652ZM24.9072 0.230034C25.8585 0.660181 26.4706 1.6032 26.4706 2.64548V34.4102C26.4706 35.4525 25.8585 36.3955 24.9072 36.8256C23.9559 37.2558 22.8392 37.0821 22.0616 36.3872L10.9026 26.469H5.29412C2.37408 26.469 0 24.0949 0 21.1749V15.8808C0 12.9607 2.37408 10.5867 5.29412 10.5867H10.9026L22.0616 0.668453C22.8392 -0.0263996 23.9559 -0.191841 24.9072 0.230034Z" fill="#F5F5F5"/>
</svg>
