<svg width="35" height="30" viewBox="0 0 35 30" fill="none" xmlns="http://www.w3.org/2000/svg">
<path d="M33.6875 10.01C29.645 3.6575 23.73 0 17.5 0C14.385 0 11.3575 0.91 8.5925 2.6075C5.8275 4.3225 3.3425 6.825 1.3125 10.01C-0.4375 12.7575 -0.4375 17.22 1.3125 19.9675C5.355 26.3375 11.27 29.9775 17.5 29.9775C20.615 29.9775 23.6425 29.0675 26.4075 27.37C29.1725 25.655 31.6575 23.1525 33.6875 19.9675C35.4375 17.2375 35.4375 12.7575 33.6875 10.01ZM17.5 22.0675C13.58 22.0675 10.43 18.9 10.43 14.9975C10.43 11.095 13.58 7.9275 17.5 7.9275C21.42 7.9275 24.57 11.095 24.57 14.9975C24.57 18.9 21.42 22.0675 17.5 22.0675Z" fill="#959595"/>
<path d="M33.6875 10.01C29.645 3.6575 23.73 0 17.5 0C14.385 0 11.3575 0.91 8.5925 2.6075C5.8275 4.3225 3.3425 6.825 1.3125 10.01C-0.4375 12.7575 -0.4375 17.22 1.3125 19.9675C5.355 26.3375 11.27 29.9775 17.5 29.9775C20.615 29.9775 23.6425 29.0675 26.4075 27.37C29.1725 25.655 31.6575 23.1525 33.6875 19.9675C35.4375 17.2375 35.4375 12.7575 33.6875 10.01ZM17.5 22.0675C13.58 22.0675 10.43 18.9 10.43 14.9975C10.43 11.095 13.58 7.9275 17.5 7.9275C21.42 7.9275 24.57 11.095 24.57 14.9975C24.57 18.9 21.42 22.0675 17.5 22.0675Z" fill="#959595"/>
<path d="M17.4972 9.99414C14.7497 9.99414 12.5098 12.2341 12.5098 14.9991C12.5098 17.7466 14.7497 19.9866 17.4972 19.9866C20.2447 19.9866 22.5022 17.7466 22.5022 14.9991C22.5022 12.2516 20.2447 9.99414 17.4972 9.99414Z" fill="#959595"/>
</svg>
