<svg width="40" height="48" viewBox="0 0 40 48" fill="none" xmlns="http://www.w3.org/2000/svg">
<path d="M33.4375 0.927696C34.625 -0.059803 36.2875 -0.284801 37.7 0.377697C39.1125 1.0402 40 2.4527 40 4.0027V44.0027C40 45.5527 39.1 46.9652 37.7 47.6277C36.3 48.2902 34.6375 48.0777 33.4375 47.0777L9.4375 27.0777L8 25.8777V44.0027C8 46.2152 6.2125 48.0027 4 48.0027C1.7875 48.0027 0 46.2152 0 44.0027V4.0027C0 1.7902 1.7875 0.00269699 4 0.00269699C6.2125 0.00269699 8 1.7902 8 4.0027V22.1277L9.4375 20.9277L33.4375 0.927696Z" fill="#F5F5F5"/>
</svg>
